<svg fill="none" height="17" viewBox="0 0 17 17" width="17" xmlns="http://www.w3.org/2000/svg"><g fill="#6677fb"><path d="m8.50034 4.32544c-2.25648 0-4.12613 1.83871-4.12613 4.12903 0 2.29033 1.83741 4.12903 4.12613 4.12903 2.28866 0 4.12616-1.871 4.12616-4.12903 0-2.25806-1.8697-4.12903-4.12616-4.12903zm0 6.77416c-1.4506 0-2.64331-1.19352-2.64331-2.64513s1.19271-2.64516 2.64331-2.64516c1.45059 0 2.64326 1.19355 2.64326 2.64516s-1.19267 2.64513-2.64326 2.64513z"/><path d="m12.7877 5.16406c.5162 0 .9348-.4188.9348-.93542s-.4186-.93543-.9348-.93543c-.5163 0-.9349.41881-.9349.93543s.4186.93542.9349.93542z"/><path d="m15.2054 1.8094c-.8381-.870971-2.0309-1.322584-3.3848-1.322584h-6.64051c-2.8045 0-4.67417 1.870964-4.67417 4.677424v6.61286c0 1.3871.4513 2.5807 1.3539 3.4517.87036.8387 2.03085 1.258 3.35251 1.258h6.57607c1.3861 0 2.5466-.4516 3.3848-1.258.8703-.8388 1.3216-2.0323 1.3216-3.4194v-6.64516c0-1.35484-.4513-2.51613-1.2894-3.35484zm-.129 10c0 1-.3545 1.8064-.9348 2.3548-.5802.5484-1.3861.8387-2.3532.8387h-6.57607c-.96707 0-1.77296-.2903-2.35321-.8387-.58024-.5806-.87036-1.3871-.87036-2.3871v-6.61286c0-.96775.29012-1.7742.87036-2.35484.54801-.54839 1.38614-.83871 2.35321-.83871h6.64057c.967 0 1.7729.29032 2.3532.87097.548.58064.8703 1.38709.8703 2.32258z"/></g></svg>