<svg xmlns="http://www.w3.org/2000/svg" width="155" height="117" fill="none"><path fill="#6677FB" d="M2 54.764h41.821v41.82H2z"/><g fill="#EBECF7" clip-path="url(#a)"><path d="M66.911 37.217c.184-4.947 4.189-8.95 9.076-8.95 4.703 0 8.56 3.664 9.038 8.384 2.425.037 4.814.075 7.239.188-.441-8.873-7.57-15.972-16.277-15.972-8.966 0-16.277 7.514-16.277 16.727v.34c2.388-.302 4.813-.528 7.201-.717ZM88.627 48.092l.073-.113c1.874-2.417 3.013-5.211 3.417-8.232-2.462 0-4.887 0-7.348.075-.992 4.078-4.556 7.061-8.782 7.061-3.784 0-7.054-2.416-8.414-5.815-2.425.265-4.85.605-7.275.982 1.91 7.061 8.23 12.235 15.69 12.235 2.387 0 4.739-.53 6.907-1.586l.11-.038.074.075 10.067 12.612c.698.868 1.69 1.36 2.793 1.36.845 0 1.653-.303 2.278-.831.734-.642 1.212-1.51 1.285-2.492.074-.982-.183-1.926-.808-2.72L88.627 48.093Z"/></g><path stroke="#202C46" d="M18.079 12.596a4.5 4.5 0 0 1 4.5-4.5h110.388a4.5 4.5 0 0 1 4.5 4.5v68.671H18.079V12.596Z"/><path fill="#0C0D0F" fill-rule="evenodd" d="M17.579 12.596a5 5 0 0 1 5-5h110.388a5 5 0 0 1 5 5v69.171h-.037l15.444 28.915a3.616 3.616 0 0 1-3.189 5.318H4.772a3.597 3.597 0 0 1-3.152-5.329l15.959-29.025v-69.05Zm116.094-.093H22.767v63.794h110.906V12.503Z" clip-rule="evenodd"/><path fill="#EBECF7" d="M137.967 81.767v.5h.5v-.5h-.5Zm-.037 0v-.5h-.834l.393.736.441-.236Zm15.444 28.915.441-.236-.441.236ZM1.62 110.671l-.438-.241.438.241Zm15.959-29.025.438.24.062-.112v-.128h-.5Zm5.188-69.143v-.5h-.5v.5h.5Zm110.906 0h.5v-.5h-.5v.5ZM22.767 76.297h-.5v.5h.5v-.5Zm110.906 0v.5h.5v-.5h-.5ZM22.579 7.096a5.5 5.5 0 0 0-5.5 5.5h1a4.5 4.5 0 0 1 4.5-4.5v-1Zm110.388 0H22.579v1h110.388v-1Zm5.5 5.5a5.5 5.5 0 0 0-5.5-5.5v1a4.5 4.5 0 0 1 4.5 4.5h1Zm0 69.171V12.596h-1v69.171h1Zm-.537.5h.037v-1h-.037v1Zm15.885 28.179-15.444-28.915-.882.472 15.444 28.914.882-.471Zm.485 1.939c0-.677-.167-1.342-.485-1.939l-.882.471c.241.452.367.956.367 1.468h1Zm-4.115 4.115a4.115 4.115 0 0 0 4.115-4.115h-1a3.115 3.115 0 0 1-3.115 3.115v1Zm-145.413 0h145.413v-1H4.772v1Zm-4.097-4.097a4.097 4.097 0 0 0 4.097 4.097v-1a3.096 3.096 0 0 1-3.097-3.097h-1Zm.507-1.973a4.092 4.092 0 0 0-.507 1.973h1c0-.521.132-1.034.383-1.492l-.876-.481ZM17.14 81.405 1.18 110.43l.877.481 15.959-29.024-.876-.482Zm-.062-68.81v69.051h1v-69.05h-1Zm5.688.408h110.906v-1H22.767v1Zm.5 63.294V12.503h-1v63.794h1Zm110.406-.5H22.767v1h110.906v-1Zm-.5-63.294v63.794h1V12.503h-1Z"/><path stroke="#EBECF7" d="m32.866 93.362.57-2.28a1 1 0 0 1 .97-.757h9.807a1 1 0 0 1 .986 1.165l-.38 2.279a1 1 0 0 1-.986.835h-9.996a1 1 0 0 1-.97-1.242ZM18.703 93.303l.72-2.279a1 1 0 0 1 .953-.699h9.481a1 1 0 0 1 .972 1.237l-.555 2.279a1 1 0 0 1-.971.763h-9.647a1 1 0 0 1-.953-1.3ZM64.144 93.43l.402-2.279a1 1 0 0 1 .985-.826h10.243a1 1 0 0 1 1 1v2.28a1 1 0 0 1-1 1H65.13a1 1 0 0 1-.985-1.175ZM48.453 93.43l.403-2.279a1 1 0 0 1 .984-.826h10.244a1 1 0 0 1 1 1v2.28a1 1 0 0 1-1 1H49.438a1 1 0 0 1-.985-1.175ZM34.489 86.121l.32-.852a1 1 0 0 1 .936-.65h9.794a1 1 0 0 1 .97 1.243l-.213.853a1 1 0 0 1-.97.757h-9.9a1 1 0 0 1-.937-1.35ZM20.395 86.044l.403-.852a1 1 0 0 1 .904-.572h9.424a1 1 0 0 1 .94 1.343l-.311.852a1 1 0 0 1-.94.657h-9.517a1 1 0 0 1-.903-1.428ZM64.27 86.217l.225-.853a1 1 0 0 1 .966-.744h10.313a1 1 0 0 1 1 1v.852a1 1 0 0 1-1 1H65.236a1 1 0 0 1-.967-1.255ZM48.579 86.217l.225-.853a1 1 0 0 1 .967-.744h10.313a1 1 0 0 1 1 1v.852a1 1 0 0 1-1 1H49.545a1 1 0 0 1-.966-1.255ZM123.535 93.362l-.57-2.28a1 1 0 0 0-.97-.757h-9.807a1 1 0 0 0-.986 1.165l.38 2.279a1 1 0 0 0 .986.835h9.997a1 1 0 0 0 .97-1.242ZM137.699 93.303l-.72-2.279a1 1 0 0 0-.954-.699h-9.481a1 1 0 0 0-.971 1.237l.554 2.279a1 1 0 0 0 .972.763h9.646a1 1 0 0 0 .954-1.3ZM92.258 93.43l-.403-2.279a1 1 0 0 0-.984-.826H80.627a1 1 0 0 0-1 1v2.28a1 1 0 0 0 1 1h10.646a1 1 0 0 0 .985-1.175ZM107.948 93.43l-.402-2.279a1.001 1.001 0 0 0-.985-.826H96.317a1 1 0 0 0-1 1v2.28a1 1 0 0 0 1 1h10.646a1 1 0 0 0 .985-1.175ZM121.913 86.121l-.32-.852a1.001 1.001 0 0 0-.937-.65h-9.794a1 1 0 0 0-.97 1.243l.213.853c.112.445.512.757.971.757h9.9a1 1 0 0 0 .937-1.35ZM136.007 86.044l-.404-.852a1 1 0 0 0-.904-.572h-9.424a1 1 0 0 0-.939 1.343l.311.852a1 1 0 0 0 .939.657h9.517a1 1 0 0 0 .904-1.428ZM92.132 86.217l-.226-.853a1 1 0 0 0-.966-.744H80.627a1 1 0 0 0-1 1v.852a1 1 0 0 0 1 1h10.539a1 1 0 0 0 .966-1.255ZM107.823 86.217l-.226-.853a1 1 0 0 0-.967-.744H96.317a1 1 0 0 0-1 1v.852a1 1 0 0 0 1 1h10.539a1 1 0 0 0 .967-1.255ZM1.175 111.139h69.51a.49.49 0 0 1 .49.49c0 .271.22.491.49.491H83.81c.271 0 .49-.22.49-.491s.22-.49.491-.49h68.537M59.459 105.931l1.865-6.343a1 1 0 0 1 .96-.717h31.382a1 1 0 0 1 .96.717l1.865 6.343a1 1 0 0 1-.96 1.282H60.419a1 1 0 0 1-.96-1.282ZM17.889 81.605h120.483"/><path fill="#24C5B6" d="M123.436.953h21.906v21.906h-21.906z"/><defs><clipPath id="a"><path fill="#fff" d="M59.71 20.867h39.829V66.67h-39.83z"/></clipPath></defs></svg>