<svg fill="none" height="17" viewBox="0 0 17 17" width="17" xmlns="http://www.w3.org/2000/svg"><path d="m16.5281 8.61328c0-1.0162-.8262-1.84302-1.8417-1.84302-.4518 0-.8777.16354-1.2141.45963-1.2179-.77994-2.843-1.27135-4.63567-1.32428l1.09686-3.75422 2.69311.5007c-.0001.02189-.0044.04279-.0032.06491.0327.64138.5806 1.13647 1.2216 1.10376.6409-.03272 1.1357-.58107 1.103-1.22241-.0327-.64138-.5807-1.13647-1.2216-1.10376-.4138.02112-.7641.25864-.9534.59593-.0003-.0001-.0006-.00032-.001-.00039l-3.24529-.60331-1.29262 4.41776c-1.79696.04794-3.42726.53649-4.65045 1.31501-.33453-.2897-.75607-.44933-1.2027-.44933-1.01547 0-1.841755.82679-1.841755 1.84302 0 .62855.323365 1.20816.846995 1.54632-.03182.1839-.04998.3707-.04998.5602 0 2.6602 3.22246 4.8246 7.18377 4.8246 3.96133 0 7.18373-2.1644 7.18373-4.8246 0-.1841-.0169-.3654-.047-.5442.5381-.3356.8714-.92389.8714-1.56232zm-11.42224 1.25438c0-.62508.50657-1.13226 1.1321-1.13226.62495 0 1.13152.50718 1.13152 1.13226 0 .62564-.50657 1.13264-1.13152 1.13264-.62553 0-1.1321-.507-1.1321-1.13264zm6.08204 3.06334c-.0337.0353-.8458.862-2.68117.862-1.84477 0-2.58275-.8382-2.61314-.8738-.104-.1215-.08983-.3045.03162-.4083.12083-.1031.30194-.0898.40623.0299.01654.0181.63249.6733 2.17532.6733 1.56964 0 2.25784-.6784 2.26484-.6851.1111-.1133.2941-.116.4083-.0048.1135.111.1177.2919.008.4068zm-.225-1.9307c-.6256 0-1.13215-.507-1.13215-1.13264 0-.62508.50655-1.13226 1.13215-1.13226.6249 0 1.1315.50718 1.1315 1.13226 0 .62564-.5066 1.13264-1.1315 1.13264z" fill="#6677fb"/></svg>