<svg fill="none" height="17" viewBox="0 0 17 17" width="17" xmlns="http://www.w3.org/2000/svg"><path d="m16.5614 4.02952c-.5895.26108-1.2197.43739-1.8838.51876.6776-.40687 1.1994-1.05107 1.4433-1.81734-.6336.37635-1.3349.65099-2.0837.79678-.5997-.64082-1.4535-1.0409-2.3955-1.0409-1.81264 0-3.27973 1.4715-3.27973 3.28546 0 .25768.0271.50858.0847.74931-2.72749-.13562-5.14666-1.44438-6.76283-3.43464-.28122.48485-.44386 1.05107-.44386 1.6512 0 1.13923.57939 2.14623 1.46032 2.73619-.53873-.01356-1.04696-.16275-1.48742-.41026v.04069c0 1.59356 1.13166 2.91923 2.63263 3.22103-.27445.0746-.56583.1153-.86399.1153-.21007 0-.41675-.0204-.61666-.061.41675 1.3053 1.62973 2.2547 3.06632 2.2818-1.12149.8816-2.53776 1.4071-4.076 1.4071-.26428 0-.525167-.017-.78267-.0475 1.45015.9426 3.17474 1.4851 5.02469 1.4851 6.0378 0 9.3379-5.0079 9.3379-9.35119 0-.1424-.0034-.28481-.0102-.42382.6404-.46451 1.196-1.0443 1.6365-1.70207z" fill="#6677fb"/></svg>