<svg fill="none" height="17" viewBox="0 0 17 17" width="17" xmlns="http://www.w3.org/2000/svg"><path clip-rule="evenodd" d="m16.2683 5.26469s-.1564-1.11037-.6356-1.59925c-.6081-.642-1.2896-.645-1.6019-.68225-2.2374-.16312-5.59356-.16312-5.59356-.16312h-.00699s-3.35616 0-5.59359.16312c-.31279.03725-.99381.04025-1.60238.68225-.47917.489-.635061 1.59925-.635061 1.59925s-.159888 1.30425-.159888 2.60788v1.22262c0 1.30411.159888 2.60791.159888 2.60791s.155891 1.1103.635061 1.5992c.60857.642 1.40751.6219 1.76326.6889 1.27911.1239 5.43621.1621 5.43621.1621s3.35965-.005 5.59705-.1681c.3123-.0378.9938-.0408 1.6019-.6828.4792-.489.6356-1.5992.6356-1.5992s.1599-1.3038.1599-2.60801v-1.22262c0-1.30363-.1599-2.60788-.1599-2.60788zm-9.4854 5.31201-.0005-4.52738 4.32 2.2715z" fill="#6677fb" fill-rule="evenodd"/></svg>